<svg xmlns="http://www.w3.org/2000/svg" viewBox="0 0 1372.88 1372.88"><defs><style>.cls-1{fill:#fff;}</style></defs><g id="Layer_2" data-name="Layer 2"><g id="Layer_1-2" data-name="Layer 1"><path class="cls-1" d="M376.38,641.49c-3.55,1.21-1.73.62,0,0Z"/><path class="cls-1" d="M245.29,439.16l-.27.46-.66,1.18c-.36.68-.7,1.36-1.05,2C243.23,443.14,243.67,442.44,245.29,439.16Z"/><path class="cls-1" d="M1177.79,740c-5-.6-10.68,2.67-14.58,5.28a78.78,78.78,0,0,0-17.43,15.87c-14.72,18.29-31.44,34.91-53.56,44.12-16,6.68-32.91,4.14-47.67-4.59-16.47-9.73-21.36-21.88-28.89-40.13-.76-1.85-3.6-11.66-4.35-13.5,2.24-7,8.34-22,10.35-29.08,7-24.43,14.34-49,19.67-73.88,5.43-25.3,12-50.78,16.62-76.25,4.65-25.71,9.35-51.42,15-76.94,5.53-25,9.21-49.9,13.84-75.08,2.22-12.07,4.12-24.19,4.58-36.48.43-11.23-.48-23.73-6.42-33.59-3.55-5.9-10.3-7.75-16.83-6.46-5.36,1.07-10.81,4.08-15.32,7.07-8,5.31-14.77,12-21.06,19.12A133.37,133.37,0,0,0,1009,402.87c-9.59,23.53-16.12,48.56-22,73.22-6.06,25.26-11,50.78-15.3,76.39q-6.61,39.39-11,79.13c-2.8,25.75-5.43,51.76-4.45,77.69a196.44,196.44,0,0,0,11.26,59.3l-.74,1.95q-1,2.6-2,5.16c-1.55,3.85-3.18,7.68-4.89,11.46-2.62,5.76-5.69,11.3-8.63,16.9.58-.93,1.16-1.86,1.75-2.79-3.95,6.3-7.63,12.82-12.37,18.57s-11.11,11.86-19.19,11.73c-9.9-.16-14.44-10.63-15.81-19.07-1.51-9.3,0-18.78.56-28.09,0-.76.1-1.52.14-2.28-.06.42-.1.84-.14,1.27.08-1.09.16-2.17.26-3.25,0,.39,0,.79-.06,1.18.45-11.2,3.3-22.46,4.8-33.55,1.11-8.11,1.9-16.26,2.67-24.41,2.41-23.42,6.29-46.66,8.78-70.07,2.06-19.32,2.43-38.5,2.72-57.89.16-11.12,0-22.85-4.08-33.37-2.29-5.94-5.29-11.89-10.51-15.77a32.41,32.41,0,0,0-20.12-6c-20.74.58-39.54,11.52-55,24.66A212.17,212.17,0,0,0,809.76,591a24.66,24.66,0,0,0-6.58-7.2c-8.15-5.77-18.3-6.15-27.7-3.56-15.53,4.26-29.72,13.8-41.73,24.28a221.8,221.8,0,0,0-28.55,29.64c-7.91-2.85-17.29-2.24-25.12,0-19.53,5.58-36.25,18-50.92,31.6a148.77,148.77,0,0,0-21.74,25.51c-5,7.41-9.62,16.05-11.52,24.88-.77,3.58-.31,7.3,3.81,8.17,4.43.94,11.54-2.85,14.58-5.28,8.86-7.07,10.34-9.26,16.49-18.79,3.35-5.19,6.58-10.91,11-15.3,5.27-5.26,12.94-7.11,20.17-7.37,3.45-.13,7.44.34,9.35,3.22,2.28,3.45.87,9.81.71,13.95s-.3,8.11-.46,12.17q-.62,16.65-1.25,33.32l-2.79,74.45c-.39,10.47.11,21.43-1.2,31.84-1.16,9.24-2.86,18.52-6.63,27-2,4.5-4.63,8.85-8.5,11.89-7.18,5.65-17.66,5.76-26,2-6.38-2.89-11.63-7.74-15.91-13.2-4.82-6.15-7.63-13.49-10.92-20.53-.43-.91-.86-1.82-1.3-2.73-6-14.14-8.29-29.49-9.73-44.7-1.8-18.85-2.34-37.81-4.66-56.61-2.42-19.62-6.91-39.86-17.06-57.07a48.91,48.91,0,0,0-34-23.5,274.21,274.21,0,0,0,26.46-14.44c8.49-5.3,16.14-12.15,23.36-19a198.82,198.82,0,0,0,26.62-31.57c12.39-18.09,22.1-39.82,19.08-62.23a49.65,49.65,0,0,0-24.52-36.61c-14.12-8.08-30.48-11-46.6-10.27-3.11.14-6.21.4-9.31.74,11.94-9.61,22.69-20.69,32.78-32.19a223.86,223.86,0,0,0,25.81-35.94c7.93-13.81,14.68-28,19-43.39,3.41-12.08,5.39-25.42,3.7-37.92-3.17-23.59-18.85-44.24-37.78-57.8s-41.89-20.88-64.88-23.89c-48.24-6.33-97.55,6.24-141,26.74-48.26,22.75-92.66,55.92-128.94,95-18.81,20.24-36.64,41.89-50.32,66-15.59,27.46-25.77,56.61-27.79,88.24-3.19,50.08,18.38,102.76,59.3,132.73,18.88,13.83,42,23.34,65.6,23.84s46.71-7.14,67.71-17.34a227.17,227.17,0,0,0,57.67-40.31,402.35,402.35,0,0,0-6.09,70.29c0,7.54.41,15.06.69,22.59.13,3.77.23,7.54.21,11.31,0,1.87,0,3.74-.12,5.6-.09,2.16-.16,3-.3,4.36-.3,2.93-.49,5.82,3.07,6.57s9.12-2.51,11.72-4.25a61.21,61.21,0,0,0,14-12.75c2.87-3.66,7-8.49,7.5-13.26.42-4.12.65-8.23.75-12.34q2.37-1.11,4.8-2.13c1.37-.57,7.08-2.4,1.4-.63,1.48-.46,2.94-1,4.43-1.46a85.36,85.36,0,0,1,15.74-3.29,51.78,51.78,0,0,1,21.81,3.39c10.33,5.24,17.25,14.09,22.23,24.36,17,39,11.43,82.48,19,123.48,3.33,17.94,10.17,36.62,24,49.11a58.35,58.35,0,0,0,28.08,14c13.31,2.43,26.39-1,38-7.58a97.41,97.41,0,0,0,9-5.78,55,55,0,0,0,7.46-5.41c14.94-13.44,27.44-28.27,37.13-45.9,13.36-24.34,16.24-50.15,19.18-77.23,1.73-17.34,3.71-34.65,5.35-52,1.22-12.89,2.69-27.22,4.42-40,1.6-11.9,1.36-22.42,3.46-34.34,2.18-12.38,10-29.17,24.06-31.3,5.8-.88,11.78,2,15.58,6.45s5.65,10.35,6.2,16.2c1.58,16.77-3.79,33.21-6.43,49.58-1.51,9.41-2.5,18.93-3.71,28.39-3.59,28.12-6.34,56.34-8.08,84.63-.36,5.82,7.83,3.94,10.64,2.92,7.77-2.83,14.14-8.25,20-13.9,27.21-26.12,28.93-64.52,31.33-99.88,2.23-33.06-2.95-69.66,17.15-98.23,7.26-10.32,21.83-18.68,31.94-13.91l2.84,1.29c-.46-.19-.92-.36-1.38-.53a26.1,26.1,0,0,1,10.28,11c-.16-.39-.31-.79-.49-1.19.44,1,.87,1.9,1.3,2.84-.26-.56-.53-1.1-.81-1.65,3.85,9.58,4.43,20.22,4.41,30.43,0,14.27-.06,28.54-1.08,42.78.06-.79.14-1.57.2-2.35-.11,1.35-.21,2.69-.32,4l.12-1.69c-1.61,18.52-4.32,36.92-6.76,55.35-.51,2.55-1,5.11-1.28,7.66-1.45,13.08-2.39,26.22-4,39.27-1.62,12.76-4.27,25.37-5.36,38.2-1,11.35-1.51,23,1.71,34.1,2.3,7.91,5.91,16.28,11.48,22.46a24.26,24.26,0,0,0,24.27,7.4c14.95-3.64,29-14.15,40.29-24.19a255.63,255.63,0,0,0,44.1-51c1.19,1.92,2.42,3.81,3.72,5.66,6.47,9.16,14.35,17.18,24.38,23a87.8,87.8,0,0,0,64.3,9.64c27.85-6.45,52.22-25.45,71.61-45.72,9-9.36,17.3-19.22,25.41-29.3,3.58-4.44,8.18-10.66,9.34-16.49C1182.24,744.93,1182,740.48,1177.79,740ZM566.67,438.21c.47-.87.89-1.65.89-1.63A9,9,0,0,1,566.67,438.21ZM415.38,619h0C415.05,619.46,414.87,619.7,415.38,619Zm0,0h0l0-.07Zm37.83-129.3c-8.13-2-16.55-3.34-24.95-2.9-9.74.52-18.87,2.45-27.63,7-14.75,7.61-27.29,18.69-37.93,31.34-8.89,10.59-21,33.31-25.06,46.49l-1.15,4.94c-.69,3.45-.46,8.22,4.09,8.76,5.39.65,11.45-2.86,15.63-5.66a82.81,82.81,0,0,0,18.68-17c2.47-3.1,4.9-6.33,7.34-9.48q1.88-2.43,3.79-4.8a31.73,31.73,0,0,1,3.9-4.51,6,6,0,0,1,2.33-1.16c3.23-.85,6.86.51,9.87,1.64,8.37,4.54,14.68,12.17,18.93,20.62,3.51,8.63,4.58,18.22,4.12,27.52a74.13,74.13,0,0,1-2.63,12.93c-.16.55-.34,1.09-.52,1.64l0,0c-.9,2.21-1.93,4.34-3,6.47-.32.52-.65,1-1,1.56l-1,1.55c-.62.77-1.25,1.54-1.89,2.3s-1.41,1.43-2.13,2.13q-2.44,2.07-5,4c-.48.34-1,.69-1.46,1q-3.26,2.22-6.63,4.28c-.74.46-1.5.9-2.25,1.35-2.11,1.12-4.23,2.23-6.37,3.28q-6.69,3.27-13.63,6c-.35.14-.82.31-1.31.48l1.79-.6c-1.17.39-2.33.82-3.5,1.21-2.57.87-5.17,1.67-7.78,2.4a104.27,104.27,0,0,1-17,3.36A103.48,103.48,0,0,1,303.08,639c-27.49-13.19-49.79-36.33-62.93-63.76A161.66,161.66,0,0,1,226.46,500a165.49,165.49,0,0,1,7.59-36c.27-.81.55-1.61.82-2.42l.13-.39.85-2.1q2.06-5.08,4.4-10.06c1-2.06,2-4.1,3.06-6.13a11.15,11.15,0,0,1,.87-1.81l.84-1.41c.21-.38.41-.75.6-1.13l-.33.67c.53-.9,1.07-1.8,1.61-2.69,3-5,6.31-9.78,9.69-14.51l.06-.08c.17-.24.33-.45.44-.59q2.52-3.33,5.14-6.58,4.93-6.15,10.17-12c.27-.28.53-.57.8-.86q3-3.18,6.06-6.3,5.7-5.79,11.67-11.31l1.23-1.1q3.38-3,6.83-5.85,6.72-5.62,13.7-10.93l1.62-1.21q3.58-2.58,7.23-5.08,7.31-5,14.84-9.62,3.64-2.25,7.34-4.39l.56-.32c1-.54,1.93-1.07,2.9-1.6a320.4,320.4,0,0,1,31.74-15c2.6-1.06,5.22-2.06,7.84-3.06l1.55-.54c1.4-.49,2.82-1,4.23-1.43q9.22-3,18.65-5.38a236.37,236.37,0,0,1,36-6.08c26.72-1.72,54.77,1.32,79.48,12.07,19.86,9.54,37.64,24.77,47.44,44.72A65.94,65.94,0,0,1,579.4,398a106.27,106.27,0,0,1-2.71,15c-.77,3-1.65,5.94-2.64,8.86l-.06.2c-.68,1.64-1.32,3.3-2,4.93-1.18,2.74-2.45,5.45-3.79,8.12-.67,1.34-1.39,2.65-2.08,4l-.06.09q-2.47,4.19-5.2,8.22c-.73,1.1-1.48,2.18-2.24,3.26q-2.67,3.46-5.5,6.82L551.76,459l-.42.45c-1.69,1.76-3.43,3.47-5.19,5.16-.93.8-1.85,1.6-2.79,2.37s-1.89,1.52-2.84,2.26c-2.26,1.55-4.52,3.09-6.82,4.57q-4.32,2.79-8.75,5.4c-1.55.82-3.09,1.65-4.65,2.44q-5,2.54-10.18,4.72c-.81.33-1.63.71-2.46,1.07l-.84.26c-1,.3-1.93.64-2.9.94a108.12,108.12,0,0,1-20.28,4.21A105.48,105.48,0,0,1,453.24,489.66Zm62.35,160.93c-16.37,5.72-36.4,8.75-53.78,7.33a12.45,12.45,0,0,1-3-.42l.89-8.13c2-25.62,6.64-51.14,14.76-75.55.39-1.17.76-2.41,1.19-3.6,0-.1.19-.48.51-1.32s.63-1.68,1-2.52q1.94-5,4.1-10c2.61-6,5.48-11.81,8.56-17.54q7.74-2.16,15.61-3.83a154.18,154.18,0,0,1,15.38-2.72,92.59,92.59,0,0,1,31,1.69A75.15,75.15,0,0,1,564,538c9.87,4.79,18.13,12.07,23.07,22,2.65,5.31,3.43,12,3.65,17.9a54.51,54.51,0,0,1-2.49,17.48A69.42,69.42,0,0,1,572,619.8c-8.19,7.81-21.19,15.53-31.34,20.27S526.3,646.84,515.59,650.59Zm451.89,118v0C967.34,769.07,967.28,769.21,967.48,768.63Zm31.85-66.35c-.21,1.61-.4,3.23-.69,4.83-.33-4.5-1.09-10.92-1.53-15.45-.54-5.66-1-11.32-1.37-17-1.43-24.26,1.48-48.55,5.13-72.49,3.57-23.42,6-47,9.85-70.42,6.23-38.12,11.79-69.4,22.78-106.46a113.6,113.6,0,0,1,8.17-19.76,44,44,0,0,1,11.74-14.81,5,5,0,0,1,3.29-1.37,3.55,3.55,0,0,1,2.83,2.4,9.7,9.7,0,0,1,.41,3.87c-.43,10.7-.8,20.19-2.73,30.67-2,11.06-8.63,41.16-10.89,51.81-9.11,42.93-12.22,56.45-21.58,99.33-2.64,12.11-6.56,26.84-9.1,40.39C1010.74,644,1002.71,675.7,999.33,702.28Z"/><polygon class="cls-1" points="835.29 911.37 816.4 911.37 816.4 1017.57 880.45 1017.57 880.45 1000.77 835.29 1000.77 835.29 911.37"/><path class="cls-1" d="M956.34,911.37l-46.2,106.2h21.15l9.6-24.3h46.05l9.9,24.3h21.6l-45.75-106.2Zm-9,65.7L964,933.87l16.35,43.2Z"/><path class="cls-1" d="M1114.44,961.62v-.3a28.36,28.36,0,0,0,13.35-8.4q5.1-5.85,5.1-14.85a24,24,0,0,0-10.27-20.63,30.4,30.4,0,0,0-10.43-4.65,49.89,49.89,0,0,0-11.85-1.42h-41.4v106.2h38.25A69.68,69.68,0,0,0,1112,1016a39,39,0,0,0,12.9-5.17,27.62,27.62,0,0,0,9.07-9.53q3.45-5.92,3.45-14.62,0-10.8-6.45-17.25A27.83,27.83,0,0,0,1114.44,961.62ZM1077.84,927H1093q10.8,0,15.9,3t5.1,10.2q0,6.9-5,10.65t-14.4,3.75h-16.8Zm38.33,67.2a15.15,15.15,0,0,1-5.85,4.8,25.61,25.61,0,0,1-7.73,2.17,63.21,63.21,0,0,1-7.8.53h-17v-30.9h17.7q11.55,0,17.25,3.3t5.7,11.7A13.83,13.83,0,0,1,1116.17,994.17Z"/><path class="cls-1" d="M427.19,773.85C418,784.64,412.56,798,417,801.82s17.05-3.47,26.26-14.27,13.56-23.4,9.13-27.19S436.4,763.05,427.19,773.85Z"/><path class="cls-1" d="M423.19,813.85C414,824.64,408.56,838,413,841.82s17.05-3.47,26.26-14.27,13.56-23.4,9.13-27.19S432.4,803.05,423.19,813.85Z"/><path class="cls-1" d="M419.19,853.85C410,864.64,404.56,878,409,881.82s17.05-3.47,26.26-14.27,13.56-23.4,9.13-27.19S428.4,843.05,419.19,853.85Z"/><path class="cls-1" d="M408.19,897.85C399,908.64,393.56,922,398,925.82s17.05-3.47,26.26-14.27,13.56-23.4,9.13-27.19S417.4,887.05,408.19,897.85Z"/><path class="cls-1" d="M391.19,944.85C382,955.64,376.56,969,381,972.82s17.05-3.47,26.26-14.27,13.56-23.4,9.13-27.19S400.4,934.05,391.19,944.85Z"/><path class="cls-1" d="M365.85,990.19c-9.83,10.24-16.12,23.2-12,27.12s17-2.68,26.83-12.91,15-22.47,10.94-26.39S375.68,980,365.85,990.19Z"/><path class="cls-1" d="M332.49,1037.37c-10.12,10-16.79,22.72-12.82,26.76s17.07-2.18,27.2-12.12,15.66-22,11.7-26.07S342.62,1027.43,332.49,1037.37Z"/><path class="cls-1" d="M297.49,1082.32c-10.54,9.51-17.74,22-13.94,26.19s17.15-1.46,27.68-11S327.81,1076.2,324,1072,308,1072.81,297.49,1082.32Z"/><path class="cls-1" d="M1318.93,419.24a688.64,688.64,0,1,0,54,267.2A684.26,684.26,0,0,0,1318.93,419.24Zm-13.82,528.55a673.57,673.57,0,1,1,52.77-261.35A669.26,669.26,0,0,1,1305.11,947.79Z"/></g></g></svg>