<svg xmlns="http://www.w3.org/2000/svg" viewBox="0 0 1004.87 846.97"><g id="Layer_2" data-name="Layer 2"><g id="Layer_1-2" data-name="Layer 1"><path d="M199.38,378.54c-3.55,1.2-1.73.62,0,0Z"/><path d="M68.29,176.21l-.27.45c-.22.4-.45.79-.66,1.19-.36.67-.7,1.36-1.06,2C66.22,180.18,66.66,179.49,68.29,176.21Z"/><path d="M1000.78,477c-5-.6-10.68,2.67-14.57,5.28a78.29,78.29,0,0,0-17.43,15.86c-14.73,18.3-31.44,34.91-53.56,44.12-16.05,6.69-32.91,4.14-47.67-4.58-16.47-9.74-21.36-21.88-28.89-40.14-.76-1.84-3.6-11.65-4.35-13.49,2.24-7,8.34-22.05,10.34-29.09,7-24.43,14.35-49,19.68-73.87,5.43-25.31,12-50.78,16.61-76.25,4.66-25.71,9.36-51.43,15-77,5.52-25,9.21-49.89,13.84-75.08,2.22-12.07,4.12-24.19,4.58-36.47.42-11.23-.48-23.73-6.42-33.59-3.56-5.91-10.3-7.76-16.83-6.46-5.36,1.06-10.81,4.07-15.32,7.07a108.74,108.74,0,0,0-21.07,19.12A133.52,133.52,0,0,0,832,139.91c-9.59,23.53-16.12,48.57-22,73.23-6.06,25.26-11,50.78-15.3,76.39q-6.63,39.39-11,79.12c-2.8,25.75-5.43,51.77-4.45,77.7a196.5,196.5,0,0,0,11.26,59.3l-.74,2c-.66,1.73-1.34,3.44-2,5.16q-2.33,5.78-4.9,11.46c-2.61,5.76-5.68,11.3-8.63,16.9.59-.93,1.17-1.86,1.75-2.79-3.95,6.29-7.62,12.82-12.36,18.57s-11.11,11.86-19.19,11.72c-9.9-.16-14.44-10.63-15.81-19.07-1.51-9.29,0-18.78.56-28.08,0-.76.1-1.52.13-2.28,0,.42-.09.84-.13,1.26.08-1.08.16-2.17.26-3.25,0,.4,0,.79-.07,1.19.45-11.2,3.3-22.47,4.81-33.55,1.11-8.12,1.89-16.27,2.67-24.42,2.41-23.42,6.29-46.66,8.78-70.07,2.06-19.32,2.43-38.49,2.72-57.88.16-11.13,0-22.85-4.08-33.38-2.29-5.94-5.29-11.89-10.52-15.76a32.3,32.3,0,0,0-20.11-6c-20.74.57-39.54,11.52-55,24.66a212.79,212.79,0,0,0-25.79,26.1,24.63,24.63,0,0,0-6.58-7.19c-8.15-5.78-18.3-6.15-27.7-3.57-15.53,4.27-29.73,13.81-41.73,24.29a222.42,222.42,0,0,0-28.56,29.63c-7.9-2.85-17.28-2.23-25.11,0-19.53,5.58-36.25,18-50.93,31.6a149.93,149.93,0,0,0-21.73,25.51c-5,7.41-9.63,16.05-11.52,24.89-.77,3.58-.31,7.3,3.81,8.17,4.43.93,11.54-2.85,14.58-5.28,8.86-7.07,10.34-9.26,16.49-18.79,3.34-5.19,6.58-10.92,11-15.31,5.27-5.26,12.94-7.1,20.16-7.37,3.45-.12,7.45.35,9.36,3.23,2.28,3.45.86,9.8.71,13.95s-.31,8.11-.46,12.16q-.63,16.66-1.25,33.33l-2.79,74.44c-.4,10.47.11,21.44-1.2,31.84-1.16,9.24-2.87,18.52-6.63,27-2,4.5-4.63,8.85-8.5,11.89-7.18,5.65-17.66,5.76-26,2-6.38-2.88-11.64-7.74-15.92-13.2-4.81-6.15-7.63-13.48-10.92-20.52q-.63-1.37-1.29-2.73c-6.05-14.14-8.29-29.49-9.74-44.71-1.79-18.84-2.33-37.81-4.65-56.61-2.42-19.62-6.91-39.85-17.06-57.07a48.91,48.91,0,0,0-34-23.5,271.89,271.89,0,0,0,26.45-14.44c8.5-5.29,16.15-12.15,23.37-19a197.35,197.35,0,0,0,26.61-31.57c12.4-18.09,22.11-39.81,19.09-62.22a49.71,49.71,0,0,0-24.52-36.62c-14.12-8.07-30.48-11-46.61-10.27q-4.65.22-9.3.74c11.93-9.61,22.69-20.69,32.78-32.18a224.3,224.3,0,0,0,25.81-35.94c7.92-13.82,14.68-28,19-43.39,3.4-12.08,5.39-25.42,3.7-37.93-3.17-23.58-18.85-44.23-37.79-57.79S371.38,4.65,348.39,1.64c-48.24-6.32-97.55,6.25-141,26.75-48.26,22.75-92.66,55.91-129,95-18.8,20.25-36.63,41.89-50.31,66C12.51,216.82,2.33,246,.31,277.6-2.88,327.67,18.68,380.36,59.6,410.33c18.88,13.83,42,23.33,65.61,23.84s46.71-7.14,67.71-17.34a227,227,0,0,0,57.67-40.32,402.46,402.46,0,0,0-6.09,70.3c0,7.53.41,15.06.68,22.59.14,3.77.24,7.54.22,11.31,0,1.87,0,3.73-.12,5.6-.09,2.15-.16,3-.3,4.35-.3,2.93-.5,5.82,3.07,6.57s9.12-2.5,11.72-4.24a61.43,61.43,0,0,0,14-12.76c2.88-3.65,7-8.48,7.51-13.25.42-4.12.65-8.24.74-12.34,1.59-.74,3.19-1.46,4.81-2.13,1.37-.57,7.08-2.4,1.4-.64,1.48-.46,2.94-1,4.42-1.45a85.72,85.72,0,0,1,15.74-3.3,52,52,0,0,1,21.82,3.4c10.33,5.23,17.25,14.09,22.23,24.36,17,39,11.43,82.48,19,123.48,3.33,17.93,10.17,36.62,24,49.11a58.56,58.56,0,0,0,28.09,14c13.31,2.42,26.39-1,38-7.58a102.49,102.49,0,0,0,9.05-5.79,55.17,55.17,0,0,0,7.46-5.4c14.93-13.44,27.44-28.27,37.12-45.91,13.36-24.33,16.25-50.15,19.19-77.22,1.73-17.34,3.71-34.65,5.35-52,1.21-12.89,2.69-27.22,4.41-40,1.6-11.9,1.37-22.43,3.47-34.34,2.18-12.38,10-29.18,24.06-31.3,5.8-.89,11.78,2,15.58,6.45s5.64,10.35,6.2,16.2c1.58,16.77-3.8,33.2-6.43,49.58-1.51,9.41-2.51,18.93-3.71,28.38q-5.4,42.18-8.09,84.64c-.35,5.82,7.83,3.94,10.65,2.91,7.77-2.83,14.14-8.24,20-13.9,27.21-26.11,28.93-64.51,31.32-99.88,2.24-33.06-2.95-69.66,17.16-98.22,7.26-10.32,21.83-18.69,31.94-13.92l2.84,1.3c-.46-.2-.92-.37-1.39-.54a26,26,0,0,1,10.29,11c-.16-.4-.32-.8-.49-1.19.43,1,.87,1.89,1.3,2.84q-.39-.84-.81-1.65c3.85,9.58,4.43,20.22,4.41,30.43,0,14.27-.06,28.54-1.09,42.77l.21-2.34c-.11,1.34-.22,2.69-.32,4,0-.56.07-1.13.11-1.69-1.6,18.53-4.31,36.93-6.75,55.36-.52,2.55-1,5.1-1.28,7.66-1.45,13.08-2.39,26.21-4,39.27-1.63,12.76-4.27,25.36-5.36,38.19-1,11.35-1.51,23,1.7,34.11,2.3,7.9,5.92,16.28,11.49,22.46a24.26,24.26,0,0,0,24.26,7.4c14.95-3.64,29-14.15,40.3-24.19a255.68,255.68,0,0,0,44.1-51c1.19,1.93,2.42,3.82,3.72,5.66,6.46,9.16,14.35,17.18,24.38,23a87.85,87.85,0,0,0,64.3,9.64c27.85-6.46,52.21-25.45,71.61-45.72,8.95-9.36,17.3-19.22,25.41-29.31,3.57-4.43,8.18-10.65,9.34-16.48C1005.24,482,1005,477.53,1000.78,477ZM389.66,175.25c.48-.86.9-1.64.89-1.62A7.58,7.58,0,0,1,389.66,175.25ZM238.38,356.05Zm0-.05h0l.05-.07Zm37.83-129.29c-8.13-2-16.56-3.35-25-2.9-9.75.52-18.87,2.45-27.64,7-14.74,7.61-27.29,18.68-37.92,31.34-8.89,10.58-21,33.31-25.06,46.48l-1.15,4.95c-.69,3.45-.47,8.21,4.09,8.76,5.39.65,11.45-2.86,15.62-5.66a82.88,82.88,0,0,0,18.69-17c2.46-3.1,4.89-6.32,7.34-9.48,1.25-1.61,2.5-3.21,3.79-4.79a30.66,30.66,0,0,1,3.9-4.51,6.17,6.17,0,0,1,2.33-1.17c3.23-.84,6.86.52,9.87,1.65,8.36,4.54,14.68,12.17,18.92,20.61,3.51,8.63,4.58,18.23,4.13,27.52a74.24,74.24,0,0,1-2.63,12.94c-.17.54-.35,1.09-.53,1.63l0,.06c-.9,2.2-1.93,4.34-3,6.46-.32.53-.64,1.05-1,1.56s-.68,1-1,1.55c-.63.78-1.25,1.55-1.89,2.31s-1.41,1.43-2.13,2.13c-1.63,1.38-3.29,2.71-5,4l-1.46,1c-2.17,1.48-4.39,2.9-6.63,4.28-.75.45-1.5.9-2.26,1.34-2.1,1.13-4.22,2.24-6.36,3.29q-6.69,3.27-13.63,6c-.35.14-.83.31-1.31.48l1.79-.6c-1.17.39-2.33.82-3.5,1.21-2.57.86-5.17,1.66-7.78,2.4a105.33,105.33,0,0,1-17,3.36,103.45,103.45,0,0,1-46.78-8.84c-27.49-13.19-49.79-36.34-62.93-63.77A161.36,161.36,0,0,1,49.46,237a165.61,165.61,0,0,1,7.59-36c.26-.8.55-1.61.82-2.41,0-.15.09-.28.13-.4.28-.7.57-1.39.85-2.09q2.05-5.1,4.4-10.06,1.47-3.11,3-6.13a12.43,12.43,0,0,1,.88-1.81l.84-1.42c.21-.37.41-.74.6-1.12-.12.23-.23.46-.33.67.53-.9,1.06-1.8,1.61-2.69,3-5,6.3-9.79,9.69-14.52l0-.08.44-.58c1.69-2.22,3.4-4.41,5.15-6.58q4.93-6.15,10.17-12c.27-.29.53-.58.8-.86q3-3.19,6-6.3,5.72-5.79,11.68-11.32l1.23-1.09q3.38-3,6.82-5.85,6.74-5.62,13.71-10.93l1.62-1.22q3.58-2.58,7.23-5.07,7.31-5,14.84-9.63c2.43-1.49,4.87-3,7.34-4.39l.55-.32c1-.53,1.93-1.07,2.9-1.59a324.92,324.92,0,0,1,31.74-15c2.6-1,5.22-2.06,7.85-3,.51-.18,1-.37,1.55-.54,1.4-.49,2.81-1,4.23-1.43q9.22-3,18.64-5.38a235.14,235.14,0,0,1,36-6.08C296.94,47.9,325,50.94,349.7,61.7c19.86,9.53,37.64,24.77,47.44,44.72a65.91,65.91,0,0,1,5.26,28.63,106.41,106.41,0,0,1-2.72,15q-1.14,4.49-2.63,8.86a1.59,1.59,0,0,1-.07.2c-.67,1.65-1.31,3.3-2,4.93-1.18,2.75-2.45,5.46-3.79,8.13-.68,1.33-1.39,2.65-2.08,4l-.06.1q-2.49,4.19-5.2,8.22c-.73,1.09-1.48,2.18-2.24,3.26q-2.67,3.47-5.5,6.81l-1.33,1.52c-.14.16-.28.31-.43.46-1.69,1.76-3.42,3.47-5.18,5.16-.93.79-1.85,1.59-2.8,2.37s-1.88,1.51-2.83,2.26c-2.26,1.55-4.52,3.08-6.83,4.57q-4.32,2.79-8.75,5.4c-1.54.82-3.08,1.65-4.65,2.44-3.33,1.69-6.72,3.27-10.17,4.71-.81.34-1.63.72-2.46,1.08l-.85.26c-1,.3-1.92.63-2.89.94a107.31,107.31,0,0,1-20.28,4.2A105.12,105.12,0,0,1,276.24,226.71Zm62.35,160.92c-16.37,5.73-36.4,8.76-53.79,7.34a12.38,12.38,0,0,1-3-.43l.88-8.13c2-25.61,6.64-51.14,14.77-75.54.39-1.17.75-2.41,1.19-3.6,0-.11.19-.48.51-1.32s.63-1.69.95-2.52q1.95-5,4.11-10c2.6-6,5.48-11.81,8.56-17.55q7.74-2.16,15.61-3.82a150.87,150.87,0,0,1,15.38-2.72,92.6,92.6,0,0,1,31,1.69A75.46,75.46,0,0,1,387,275c9.87,4.79,18.13,12.06,23.07,22,2.65,5.31,3.43,12,3.64,17.89a54.15,54.15,0,0,1-2.49,17.48A69.39,69.39,0,0,1,395,356.85c-8.19,7.81-21.19,15.53-31.34,20.27S349.3,383.88,338.59,387.63ZM790.48,505.68v0C790.34,506.12,790.27,506.26,790.48,505.68Zm31.84-66.36c-.2,1.62-.39,3.23-.68,4.84-.33-4.51-1.09-10.92-1.53-15.46-.54-5.65-1-11.32-1.37-17-1.43-24.26,1.47-48.54,5.13-72.48,3.57-23.43,6-47.06,9.85-70.43,6.23-38.11,11.79-69.4,22.78-106.45a113.6,113.6,0,0,1,8.17-19.76,43.9,43.9,0,0,1,11.74-14.81,5,5,0,0,1,3.29-1.38,3.59,3.59,0,0,1,2.83,2.41,9.68,9.68,0,0,1,.4,3.87c-.42,10.7-.79,20.18-2.73,30.67-2,11.06-8.62,41.16-10.88,51.8-9.11,42.94-12.22,56.46-21.58,99.33-2.64,12.11-6.56,26.85-9.1,40.4C833.73,381,825.71,412.74,822.32,439.32Z"/><polygon points="658.29 648.41 639.39 648.41 639.39 754.61 703.44 754.61 703.44 737.81 658.29 737.81 658.29 648.41"/><path d="M779.34,648.41l-46.2,106.2h21.15l9.6-24.3h46.05l9.9,24.3h21.6l-45.75-106.2Zm-9,65.7L787,670.91l16.35,43.2Z"/><path d="M937.44,698.66v-.3a28.36,28.36,0,0,0,13.35-8.4q5.1-5.85,5.1-14.85a24,24,0,0,0-10.28-20.62,30.35,30.35,0,0,0-10.42-4.65,49.9,49.9,0,0,0-11.85-1.43h-41.4v106.2h38.25A69.58,69.58,0,0,0,935,753a39,39,0,0,0,12.9-5.18,27.62,27.62,0,0,0,9.08-9.52q3.45-5.93,3.45-14.63,0-10.8-6.45-17.25A27.89,27.89,0,0,0,937.44,698.66ZM900.84,664H916q10.8,0,15.9,3c3.4,2,5.1,5.4,5.1,10.2q0,6.91-5,10.65t-14.4,3.75h-16.8Zm38.32,67.2a15.15,15.15,0,0,1-5.85,4.8,25.28,25.28,0,0,1-7.72,2.18,63.1,63.1,0,0,1-7.8.52H900.84v-30.9h17.7q11.55,0,17.25,3.3c3.8,2.21,5.7,6.1,5.7,11.7A13.81,13.81,0,0,1,939.16,731.21Z"/><path d="M250.19,510.89c-9.21,10.8-14.63,24.19-10.19,28s17-3.48,26.25-14.27,13.57-23.4,9.14-27.19S259.4,500.1,250.19,510.89Z"/><path d="M246.19,550.89c-9.21,10.8-14.63,24.19-10.19,28s17-3.48,26.25-14.27,13.57-23.4,9.14-27.19S255.4,540.1,246.19,550.89Z"/><path d="M242.19,590.89c-9.21,10.8-14.63,24.19-10.19,28s17-3.48,26.25-14.27,13.57-23.4,9.14-27.19S251.4,580.1,242.19,590.89Z"/><path d="M231.19,634.89c-9.21,10.8-14.63,24.19-10.19,28s17-3.48,26.25-14.27,13.57-23.4,9.14-27.19S240.4,624.1,231.19,634.89Z"/><path d="M214.19,681.89c-9.21,10.8-14.63,24.19-10.19,28s17-3.48,26.25-14.27,13.57-23.4,9.14-27.19S223.4,671.1,214.19,681.89Z"/><path d="M188.85,727.24c-9.83,10.23-16.12,23.19-12,27.12s17-2.68,26.83-12.91,15-22.47,10.94-26.39S198.68,717,188.85,727.24Z"/><path d="M155.49,774.42c-10.12,9.94-16.79,22.72-12.82,26.76s17.07-2.19,27.19-12.13,15.67-22,11.7-26.06S165.61,764.48,155.49,774.42Z"/><path d="M120.48,819.37c-10.53,9.5-17.73,22-13.93,26.19s17.14-1.46,27.68-11S150.81,813.25,147,809,131,809.86,120.48,819.37Z"/></g></g></svg>